<?xml version="1.0" encoding="UTF-8" standalone="no"?>
<!-- Created with Inkscape (http://www.inkscape.org/) -->

<svg
   xmlns:dc="http://purl.org/dc/elements/1.1/"
   xmlns:cc="http://creativecommons.org/ns#"
   xmlns:rdf="http://www.w3.org/1999/02/22-rdf-syntax-ns#"
   xmlns:svg="http://www.w3.org/2000/svg"
   xmlns="http://www.w3.org/2000/svg"
   xmlns:sodipodi="http://sodipodi.sourceforge.net/DTD/sodipodi-0.dtd"
   xmlns:inkscape="http://www.inkscape.org/namespaces/inkscape"
   width="900"
   height="440"
   id="svg3361"
   version="1.1"
   inkscape:version="0.48.4 r9939"
   sodipodi:docname="attackRange.svg">
  <defs
     id="defs3363" />
  <sodipodi:namedview
     id="base"
     pagecolor="#76ffff"
     bordercolor="#666666"
     borderopacity="1"
     inkscape:pageopacity="0"
     inkscape:pageshadow="2"
     inkscape:zoom="1.0567318"
     inkscape:cx="413.10397"
     inkscape:cy="319.7526"
     inkscape:document-units="px"
     inkscape:current-layer="layer3"
     showgrid="true"
     inkscape:window-width="1862"
     inkscape:window-height="1056"
     inkscape:window-x="58"
     inkscape:window-y="24"
     inkscape:window-maximized="1"
     showguides="true"
     inkscape:guide-bbox="true"
     objecttolerance="10000"
     gridtolerance="10000"
     inkscape:snap-from-guide="true"
     guidetolerance="10000"
     inkscape:snap-bbox="true"
     inkscape:bbox-paths="true"
     inkscape:bbox-nodes="true"
     inkscape:snap-bbox-edge-midpoints="false"
     inkscape:snap-bbox-midpoints="false"
     inkscape:snap-grids="true"
     inkscape:snap-to-guides="true"
     inkscape:snap-midpoints="false"
     inkscape:object-paths="true"
     inkscape:snap-object-midpoints="false"
     inkscape:snap-center="false"
     inkscape:snap-nodes="true"
     inkscape:snap-global="true"
     inkscape:snap-page="false"
     inkscape:snap-smooth-nodes="true"
     inkscape:object-nodes="true">
    <inkscape:grid
       type="xygrid"
       id="grid21681"
       empspacing="3"
       visible="true"
       enabled="true"
       snapvisiblegridlinesonly="false"
       dotted="false"
       spacingx="30px"
       spacingy="14.6666px"
       units="px" />
  </sodipodi:namedview>
  <metadata
     id="metadata3366">
    <rdf:RDF>
      <cc:Work
         rdf:about="">
        <dc:format>image/svg+xml</dc:format>
        <dc:type
           rdf:resource="http://purl.org/dc/dcmitype/StillImage" />
        <dc:title />
      </cc:Work>
    </rdf:RDF>
  </metadata>
  <g
     inkscape:label="Background"
     inkscape:groupmode="layer"
     id="layer1"
     transform="translate(0,-612.36218)">
    <text
       xml:space="preserve"
       style="font-size:20px;font-style:normal;font-weight:normal;line-height:125%;letter-spacing:0px;word-spacing:0px;fill:#000000;fill-opacity:1;stroke:none;font-family:Sans"
       x="213.23776"
       y="54.291737"
       id="text3440"
       sodipodi:linespacing="125%"
       transform="translate(0,487.36218)"><tspan
         sodipodi:role="line"
         id="tspan3442"
         x="213.23776"
         y="54.291737" /></text>
    <text
       xml:space="preserve"
       style="font-size:30px;font-style:normal;font-weight:normal;line-height:125%;letter-spacing:0px;word-spacing:0px;fill:#000000;fill-opacity:1;stroke:none;font-family:Sans"
       x="212.47893"
       y="58.844856"
       id="text3444"
       sodipodi:linespacing="125%"
       transform="translate(0,487.36218)"><tspan
         sodipodi:role="line"
         id="tspan3446"
         x="212.47893"
         y="58.844856" /></text>
    <rect
       style="opacity:0.4;fill:#445016;fill-opacity:0.52314812;fill-rule:evenodd;stroke:#000000;stroke-width:1;stroke-miterlimit:4;stroke-opacity:1;stroke-dasharray:none"
       id="rect22839"
       width="900"
       height="439.99799"
       x="0.5"
       y="611.8642" />
  </g>
  <g
     inkscape:groupmode="layer"
     id="layer2"
     inkscape:label="CoralRegion"
     transform="translate(0,-125)"
     sodipodi:insensitive="true">
    <rect
       style="opacity:0.15;fill:#008080;fill-rule:evenodd;stroke:#000000;stroke-width:0.82718194px;stroke-linecap:butt;stroke-linejoin:miter;stroke-opacity:1"
       id="rect3367"
       width="299.17282"
       height="351.17282"
       x="300"
       y="169.82741" />
  </g>
  <g
     inkscape:groupmode="layer"
     id="layer5"
     inkscape:label="Attacks"
     transform="translate(0,-125)" />
  <g
     inkscape:groupmode="layer"
     id="layer4"
     inkscape:label="Vision"
     transform="translate(0,-125)">
    <path
       style="fill:#0000ff;stroke:#000000;stroke-width:1px;stroke-linecap:butt;stroke-linejoin:miter;stroke-opacity:1"
       d="m 150,58.6684 0,43.9998 300,0 0,-43.9998 z"
       id="path5576"
       inkscape:connector-curvature="0"
       transform="translate(0,125)" />
    <path
       style="fill:#0000ff;stroke:#000000;stroke-width:1px;stroke-linecap:butt;stroke-linejoin:miter;stroke-opacity:1"
       d="m 0,132.0014 30,0 0,14.6666 -30,0 z"
       id="path5581"
       inkscape:connector-curvature="0"
       transform="translate(0,125)" />
    <path
       style="fill:#0000ff;stroke:#000000;stroke-width:1px;stroke-linecap:butt;stroke-linejoin:miter;stroke-opacity:1"
       d="m 30,146.668 30,0 0,146.666 -30,0 0,0 0,14.6666 -30,0 0,-14.6666 30,0 z"
       id="path5583"
       inkscape:connector-curvature="0"
       transform="translate(0,125)" />
    <path
       style="fill:#0000ff;stroke:#000000;stroke-width:1px;stroke-linecap:butt;stroke-linejoin:miter;stroke-opacity:1"
       d="m 150,477.0004 0,43.9998 120,0 120,0 0,-43.9998 -240,0"
       id="path5585"
       inkscape:connector-curvature="0" />
    <path
       style="fill:#0000ff;stroke:#000000;stroke-width:1px;stroke-linecap:butt;stroke-linejoin:miter;stroke-opacity:1"
       d="m 180,161.3346 0,43.9998 90,0 90,0 0.87064,-43.12859 z"
       id="path5592"
       inkscape:connector-curvature="0"
       transform="translate(0,125)" />
    <path
       style="fill:#0000ff;stroke:#000000;stroke-width:1px;stroke-linecap:butt;stroke-linejoin:miter;stroke-opacity:1"
       d="m 210,220.001 0,73.333 180,0 0.4353,-72.89769 z"
       id="path5594"
       inkscape:connector-curvature="0"
       transform="translate(0,125)" />
    <path
       style="fill:#0000ff;stroke:#000000;stroke-width:1px;stroke-linecap:butt;stroke-linejoin:miter;stroke-opacity:1"
       d="m 600.5,564.5 0,-29.3332 300,0 0,29.3332 z"
       id="path5596"
       inkscape:connector-curvature="0" />
  </g>
  <g
     inkscape:groupmode="layer"
     id="layer3"
     inkscape:label="Objects"
     transform="translate(0,-125)">
    <rect
       style="fill:#ffd5d5;stroke:#000000;stroke-width:0.87063479;stroke-miterlimit:4;stroke-opacity:1;stroke-dasharray:none"
       id="rect21842"
       width="29.129364"
       height="13.795365"
       x="481.74127"
       y="200.07745" />
    <rect
       style="fill:#ffd5d5;stroke:#000000;stroke-width:0.87063479;stroke-miterlimit:4;stroke-opacity:1;stroke-dasharray:none"
       id="rect21842-5"
       width="29.129364"
       height="13.795365"
       x="331.74127"
       y="258.74384" />
    <rect
       style="fill:#ffd5d5;stroke:#000000;stroke-width:0.87063479;stroke-miterlimit:4;stroke-opacity:1;stroke-dasharray:none"
       id="rect21842-2"
       width="29.129364"
       height="13.795365"
       x="451.30594"
       y="228.97473" />
    <rect
       style="fill:#ffd5d5;stroke:#000000;stroke-width:0.87063479;stroke-miterlimit:4;stroke-opacity:1;stroke-dasharray:none"
       id="rect21842-9"
       width="29.129364"
       height="13.795365"
       x="391.30597"
       y="214.30814" />
    <rect
       style="fill:#ffd5d5;stroke:#000000;stroke-width:0.87063479;stroke-miterlimit:4;stroke-opacity:1;stroke-dasharray:none"
       id="rect21842-58"
       width="29.129364"
       height="13.795365"
       x="361.30594"
       y="331.64093" />
    <rect
       style="fill:#ffd5d5;stroke:#000000;stroke-width:0.87063479;stroke-miterlimit:4;stroke-opacity:1;stroke-dasharray:none"
       id="rect21842-99"
       width="29.129364"
       height="13.795365"
       x="451.30594"
       y="302.30774" />
    <rect
       style="fill:#ffd5d5;stroke:#000000;stroke-width:0.87063479;stroke-miterlimit:4;stroke-opacity:1;stroke-dasharray:none"
       id="rect21842-4"
       width="29.129364"
       height="13.795365"
       x="541.30597"
       y="316.97495" />
    <rect
       style="fill:#ffd5d5;stroke:#000000;stroke-width:0.87063479;stroke-miterlimit:4;stroke-opacity:1;stroke-dasharray:none"
       id="rect21842-8"
       width="29.129364"
       height="13.795365"
       x="361.30594"
       y="272.97455" />
    <rect
       style="fill:#ffd5d5;stroke:#000000;stroke-width:0.87063479;stroke-miterlimit:4;stroke-opacity:1;stroke-dasharray:none"
       id="rect21842-9-9"
       width="29.129364"
       height="13.795365"
       x="391.30594"
       y="404.97455" />
    <rect
       style="fill:#ffd5d5;stroke:#000000;stroke-width:0.87063479;stroke-miterlimit:4;stroke-opacity:1;stroke-dasharray:none"
       id="rect21842-9-2"
       width="29.129364"
       height="13.795365"
       x="451.30594"
       y="404.97455" />
    <rect
       style="fill:#ffd5d5;stroke:#000000;stroke-width:0.87063479;stroke-miterlimit:4;stroke-opacity:1;stroke-dasharray:none"
       id="rect21842-9-6"
       width="29.129364"
       height="13.795365"
       x="571.30591"
       y="419.64053" />
    <rect
       style="fill:#ffd5d5;stroke:#000000;stroke-width:0.87063479;stroke-miterlimit:4;stroke-opacity:1;stroke-dasharray:none"
       id="rect21842-4-3"
       width="29.129364"
       height="13.795365"
       x="301.7413"
       y="228.53941" />
    <rect
       style="fill:#ffd5d5;stroke:#000000;stroke-width:0.87063479;stroke-miterlimit:4;stroke-opacity:1;stroke-dasharray:none"
       id="rect21842-4-7"
       width="29.129364"
       height="13.795365"
       x="391.7413"
       y="361.41003" />
    <rect
       style="fill:#ffd5d5;stroke:#000000;stroke-width:0.87063479;stroke-miterlimit:4;stroke-opacity:1;stroke-dasharray:none"
       id="rect21842-4-70"
       width="29.129364"
       height="13.795365"
       x="450.87064"
       y="346.74344" />
    <rect
       style="fill:#ffd5d5;stroke:#000000;stroke-width:0.87063479;stroke-miterlimit:4;stroke-opacity:1;stroke-dasharray:none"
       id="rect21842-4-71"
       width="29.129364"
       height="13.795365"
       x="451.7413"
       y="257.87262" />
    <rect
       style="fill:#ffd5d5;stroke:#000000;stroke-width:0.87063479;stroke-miterlimit:4;stroke-opacity:1;stroke-dasharray:none"
       id="rect21842-4-6"
       width="29.129364"
       height="13.795365"
       x="510.87064"
       y="272.53922" />
    <rect
       style="fill:#ffd5d5;stroke:#000000;stroke-width:0.87063479;stroke-miterlimit:4;stroke-opacity:1;stroke-dasharray:none"
       id="rect21842-4-1"
       width="29.129364"
       height="13.795365"
       x="481.74127"
       y="360.53882" />
    <rect
       style="fill:#ffd5d5;stroke:#000000;stroke-width:0.87063479;stroke-miterlimit:4;stroke-opacity:1;stroke-dasharray:none"
       id="rect21842-4-8"
       width="29.129364"
       height="13.795365"
       x="331.30594"
       y="448.97433" />
    <rect
       style="fill:#ffd5d5;stroke:#000000;stroke-width:0.87063479;stroke-miterlimit:4;stroke-opacity:1;stroke-dasharray:none"
       id="rect21842-9-6-1"
       width="29.129364"
       height="13.795365"
       x="480.87064"
       y="244.07724" />
    <rect
       style="fill:#ffd5d5;stroke:#000000;stroke-width:0.87063479;stroke-miterlimit:4;stroke-opacity:1;stroke-dasharray:none"
       id="rect21842-9-6-0"
       width="29.129364"
       height="13.795365"
       x="480.87064"
       y="288.07703" />
    <rect
       style="fill:#ffd5d5;stroke:#000000;stroke-width:0.87063479;stroke-miterlimit:4;stroke-opacity:1;stroke-dasharray:none"
       id="rect21842-9-6-03"
       width="29.129364"
       height="13.795365"
       x="360.87064"
       y="287.20581" />
    <rect
       style="fill:#ffd5d5;stroke:#000000;stroke-width:0.87063479;stroke-miterlimit:4;stroke-opacity:1;stroke-dasharray:none"
       id="rect21842-9-6-9"
       width="29.129364"
       height="13.795365"
       x="540.87061"
       y="244.07724" />
    <rect
       style="fill:#ffd5d5;stroke:#000000;stroke-width:0.87063479;stroke-miterlimit:4;stroke-opacity:1;stroke-dasharray:none"
       id="rect21842-9-6-6"
       width="29.129364"
       height="13.795365"
       x="540.87061"
       y="272.53922" />
    <rect
       style="fill:#ffd5d5;stroke:#000000;stroke-width:0.87063479;stroke-miterlimit:4;stroke-opacity:1;stroke-dasharray:none"
       id="rect21842-9-6-68"
       width="29.129364"
       height="13.795365"
       x="451.74124"
       y="492.53821" />
    <rect
       transform="translate(0,-487.36218)"
       style="fill:#ffff00;stroke:#000000;stroke-width:1;stroke-miterlimit:4;stroke-opacity:1;stroke-dasharray:none"
       id="rect22051"
       width="30"
       height="146.666"
       x="0"
       y="759.03015" />
    <rect
       transform="translate(0,-487.36218)"
       style="fill:#008000;stroke:#000000;stroke-width:1;stroke-miterlimit:4;stroke-opacity:1;stroke-dasharray:none"
       id="rect22051-1"
       width="30"
       height="146.666"
       x="870"
       y="759.03015" />
    <rect
       style="fill:#ffdd55;stroke:#000000;stroke-width:1;stroke-miterlimit:4;stroke-opacity:1;stroke-dasharray:none"
       id="rect22079"
       width="150"
       height="14.6666"
       x="120.5"
       y="198.83501" />
    <rect
       style="fill:#ffe680;stroke:#000000;stroke-width:1;stroke-miterlimit:4;stroke-opacity:1;stroke-dasharray:none"
       id="rect22081"
       width="120"
       height="14.6666"
       x="120.5"
       y="491.16699" />
    <rect
       style="fill:#00ff00;stroke:#000000;stroke-width:0.82263201;stroke-miterlimit:4;stroke-opacity:1;stroke-dasharray:none"
       id="rect22083"
       width="60.177368"
       height="14.843968"
       x="389.41132"
       y="184.07971"
       inkscape:transform-center-x="-30.423003"
       inkscape:transform-center-y="-29.687944" />
    <rect
       style="fill:#ffe680;stroke:#000000;stroke-width:1;stroke-miterlimit:4;stroke-opacity:1;stroke-dasharray:none"
       id="rect22085"
       width="60"
       height="14.6666"
       x="270"
       y="374.3342" />
    <rect
       style="fill:#ffe680;stroke:#000000;stroke-width:1;stroke-miterlimit:4;stroke-opacity:1;stroke-dasharray:none"
       id="rect22087"
       width="90"
       height="14.6666"
       x="570"
       y="550.33337" />
    <path
       sodipodi:type="arc"
       style="fill:#808000;fill-opacity:1;fill-rule:evenodd;stroke:#000000;stroke-width:1;stroke-miterlimit:4;stroke-opacity:1;stroke-dasharray:none"
       id="path5418"
       sodipodi:cx="165"
       sodipodi:cy="154.0013"
       sodipodi:rx="15"
       sodipodi:ry="7.3333001"
       d="m 180,154.0013 c 0,4.05007 -6.71573,7.3333 -15,7.3333 -8.28427,0 -15,-3.28323 -15,-7.3333 0,-4.05007 6.71573,-7.3333 15,-7.3333 8.28427,0 15,3.28323 15,7.3333 z"
       transform="translate(90.5,52.167003)" />
    <path
       sodipodi:type="arc"
       style="fill:#808000;fill-opacity:1;fill-rule:evenodd;stroke:#000000;stroke-width:1;stroke-miterlimit:4;stroke-opacity:1;stroke-dasharray:none"
       id="path5420"
       sodipodi:cx="135"
       sodipodi:cy="183.3345"
       sodipodi:rx="15"
       sodipodi:ry="7.3333001"
       d="m 150,183.3345 c 0,4.05007 -6.71573,7.3333 -15,7.3333 -8.28427,0 -15,-3.28323 -15,-7.3333 0,-4.05007 6.71573,-7.3333 15,-7.3333 8.28427,0 15,3.28323 15,7.3333 z"
       transform="translate(90.5,315.1658)" />
    <path
       sodipodi:type="arc"
       style="fill:#808000;fill-opacity:1;fill-rule:evenodd;stroke:#000000;stroke-width:1;stroke-miterlimit:4;stroke-opacity:1;stroke-dasharray:none"
       id="path5422"
       sodipodi:cx="105"
       sodipodi:cy="227.3343"
       sodipodi:rx="15"
       sodipodi:ry="7.3333001"
       d="m 120,227.3343 c 0,4.05007 -6.71573,7.3333 -15,7.3333 -8.284271,0 -15,-3.28323 -15,-7.3333 0,-4.05007 6.715729,-7.3333 15,-7.3333 8.28427,0 15,3.28323 15,7.3333 z"
       transform="translate(299.5,-35.832605)" />
    <path
       sodipodi:type="arc"
       style="fill:#808000;fill-opacity:1;fill-rule:evenodd;stroke:#000000;stroke-width:1;stroke-miterlimit:4;stroke-opacity:1;stroke-dasharray:none"
       id="path5424"
       sodipodi:cx="75"
       sodipodi:cy="256.66751"
       sodipodi:rx="15"
       sodipodi:ry="7.3333001"
       d="m 90,256.66751 c 0,4.05007 -6.715729,7.3333 -15,7.3333 -8.284271,0 -15,-3.28323 -15,-7.3333 0,-4.05007 6.715729,-7.3333 15,-7.3333 8.284271,0 15,3.28323 15,7.3333 z"
       transform="translate(240,125.00001)" />
    <path
       sodipodi:type="arc"
       style="fill:#808000;fill-opacity:1;fill-rule:evenodd;stroke:#000000;stroke-width:1;stroke-miterlimit:4;stroke-opacity:1;stroke-dasharray:none"
       id="path5426"
       sodipodi:cx="105"
       sodipodi:cy="286.0007"
       sodipodi:rx="15"
       sodipodi:ry="7.3333001"
       d="m 120,286.0007 c 0,4.05007 -6.71573,7.3333 -15,7.3333 -8.284271,0 -15,-3.28323 -15,-7.3333 0,-4.05007 6.715729,-7.3333 15,-7.3333 8.28427,0 15,3.28323 15,7.3333 z"
       transform="translate(540,271.666)" />
    <rect
       style="fill:#00ff00;stroke:#000000;stroke-width:0.99999994;stroke-miterlimit:4;stroke-opacity:1;stroke-dasharray:none"
       id="rect22083-0"
       width="90"
       height="14.6666"
       x="299.5"
       y="388.50079"
       inkscape:transform-center-x="-45.5"
       inkscape:transform-center-y="-29.333208" />
    <path
       sodipodi:type="arc"
       style="fill:#808000;fill-opacity:1;fill-rule:evenodd;stroke:#000000;stroke-width:1;stroke-miterlimit:4;stroke-opacity:1;stroke-dasharray:none"
       id="path5422-4"
       sodipodi:cx="105"
       sodipodi:cy="227.3343"
       sodipodi:rx="15"
       sodipodi:ry="7.3333001"
       d="m 120,227.3343 c 0,4.05007 -6.71573,7.3333 -15,7.3333 -8.284271,0 -15,-3.28323 -15,-7.3333 0,-4.05007 6.715729,-7.3333 15,-7.3333 8.28427,0 15,3.28323 15,7.3333 z"
       transform="translate(209.5,168.4998)" />
    <rect
       style="fill:#00ff00;stroke:#000000;stroke-width:0.5893693;stroke-miterlimit:4;stroke-opacity:1;stroke-dasharray:none"
       id="rect22083-4"
       width="30.410631"
       height="15.077231"
       x="359.79468"
       y="498.79498"
       inkscape:transform-center-x="-15.374257"
       inkscape:transform-center-y="-30.154476" />
    <path
       sodipodi:type="arc"
       style="fill:#808000;fill-opacity:1;fill-rule:evenodd;stroke:#000000;stroke-width:1;stroke-miterlimit:4;stroke-opacity:1;stroke-dasharray:none"
       id="path5422-2"
       sodipodi:cx="105"
       sodipodi:cy="227.3343"
       sodipodi:rx="15"
       sodipodi:ry="7.3333001"
       d="m 120,227.3343 c 0,4.05007 -6.71573,7.3333 -15,7.3333 -8.284271,0 -15,-3.28323 -15,-7.3333 0,-4.05007 6.715729,-7.3333 15,-7.3333 8.28427,0 15,3.28323 15,7.3333 z"
       transform="translate(270,278.9993)" />
    <rect
       style="fill:#00ff00;fill-opacity:1;fill-rule:evenodd;stroke:#000000;stroke-width:0.46679175;stroke-miterlimit:4;stroke-opacity:1;stroke-dasharray:none"
       id="rect5639"
       width="30.533209"
       height="15.69982"
       x="209.7334"
       y="315.40118" />
    <path
       sodipodi:type="arc"
       style="fill:#808000;fill-opacity:1;fill-rule:evenodd;stroke:#000000;stroke-width:1;stroke-miterlimit:4;stroke-opacity:1;stroke-dasharray:none"
       id="path5418-8"
       sodipodi:cx="165"
       sodipodi:cy="154.0013"
       sodipodi:rx="15"
       sodipodi:ry="7.3333001"
       d="m 180,154.0013 c 0,4.05007 -6.71573,7.3333 -15,7.3333 -8.28427,0 -15,-3.28323 -15,-7.3333 0,-4.05007 6.71573,-7.3333 15,-7.3333 8.28427,0 15,3.28323 15,7.3333 z"
       transform="translate(60.5,168.4998)" />
    <rect
       style="fill:#00ff00;fill-opacity:1;fill-rule:evenodd;stroke:#000000;stroke-width:0.77938604;stroke-miterlimit:4;stroke-opacity:1;stroke-dasharray:none"
       id="rect5639-7"
       width="30.220613"
       height="44.220406"
       x="209.88969"
       y="344.89069" />
    <rect
       style="fill:#00ff00;fill-opacity:1;fill-rule:evenodd;stroke:#000000;stroke-width:0.46679175;stroke-miterlimit:4;stroke-opacity:1;stroke-dasharray:none"
       id="rect5639-8"
       width="30.533209"
       height="15.69982"
       x="720"
       y="534.63361" />
    <path
       sodipodi:type="arc"
       style="fill:#808000;fill-opacity:1;fill-rule:evenodd;stroke:#000000;stroke-width:1;stroke-miterlimit:4;stroke-opacity:1;stroke-dasharray:none"
       id="path5418-8-7"
       sodipodi:cx="165"
       sodipodi:cy="154.0013"
       sodipodi:rx="15"
       sodipodi:ry="7.3333001"
       d="m 180,154.0013 c 0,4.05007 -6.71573,7.3333 -15,7.3333 -8.28427,0 -15,-3.28323 -15,-7.3333 0,-4.05007 6.71573,-7.3333 15,-7.3333 8.28427,0 15,3.28323 15,7.3333 z"
       transform="translate(570.2666,389.26538)" />
    <rect
       style="fill:#ffe680;stroke:#000000;stroke-width:1;stroke-miterlimit:4;stroke-opacity:1;stroke-dasharray:none"
       id="rect22087-2"
       width="90"
       height="14.6666"
       x="150"
       y="301.00119" />
    <path
       sodipodi:type="arc"
       style="fill:#808000;fill-opacity:1;fill-rule:evenodd;stroke:#000000;stroke-width:1;stroke-miterlimit:4;stroke-opacity:1;stroke-dasharray:none"
       id="path5426-2"
       sodipodi:cx="105"
       sodipodi:cy="286.0007"
       sodipodi:rx="15"
       sodipodi:ry="7.3333001"
       d="m 120,286.0007 c 0,4.05007 -6.71573,7.3333 -15,7.3333 -8.284271,0 -15,-3.28323 -15,-7.3333 0,-4.05007 6.715729,-7.3333 15,-7.3333 8.28427,0 15,3.28323 15,7.3333 z"
       transform="translate(119.5,22.833812)" />
  </g>
</svg>
